<svg id="Layer_1" data-name="Layer 1" xmlns="http://www.w3.org/2000/svg" viewBox="0 0 311.74 36.33"><defs><style>.cls-1{fill:#231f20;}</style></defs><title>daylight-skateboards-logo</title><path class="cls-1" d="M35.12,2.26A16.34,16.34,0,0,0,27.73.8H26a23.81,23.81,0,0,1-2.48.15H20.15c-1.28,0-2.32,0-3.09-.05-1.52-.07-2.5-.1-3-.1s-1.18.05-1.18.5.31.5.92.5h0L16.5,2c.65.06,1.42.22,1.42.62a14.22,14.22,0,0,1-1,3l-10.07,25c-.43,1-.74,1.74-.92,2.21a4.86,4.86,0,0,1-.78,1.29,5.7,5.7,0,0,1-2.81.42c-.73,0-1.25,0-1.57,0-.63.1-.76.4-.76.64s.14.58.83.58a4.54,4.54,0,0,0,1-.1H4.64l7.58,0a60.81,60.81,0,0,0,7.4-.38,26.42,26.42,0,0,0,5.21-1.48,24.39,24.39,0,0,0,11.36-8.57,21.83,21.83,0,0,0,4.29-13.06C40.48,7.49,38.68,4.15,35.12,2.26Zm.15,8.3a25.59,25.59,0,0,1-1.84,9.28,26,26,0,0,1-5,8.18,19.28,19.28,0,0,1-15,6.44c-2.22,0-2.56-.38-2.56-.61a33,33,0,0,1,1.24-3.29L21.57,6.72c.26-.69.71-1.71,1.34-3,.51-1.1.85-1.38,1.05-1.42a16.46,16.46,0,0,1,3-.2,9,9,0,0,1,5.8,1.66C34.42,5.1,35.27,7.39,35.27,10.56Z"/><path class="cls-1" d="M75.41,34.51H72.47c-1.12-.06-1.67-.52-1.67-1.41,0-.09,0-.56.3-2.68L73.3,12.64c.5-4,1-7,1.39-9A13.43,13.43,0,0,0,75,.84c0-.73-.4-.84-.64-.84s-.59.23-1,.7L69.06,6.4c-1.73,2.19-3.06,3.89-3.94,5l-14.41,19a18,18,0,0,1-3.2,3.66,5.58,5.58,0,0,1-2.77.63,6.53,6.53,0,0,1-1-.1,7.36,7.36,0,0,0-1-.1c-.55,0-.63.34-.63.54,0,.38.32.62,1,.71a20.38,20.38,0,0,0,2.44.09l1.67,0,4.53-.15,2.75.15c.37,0,1.48,0,1.48-.68,0-.24-.11-.64-.84-.64a6.38,6.38,0,0,0-.92.1,5.47,5.47,0,0,1-.87.1c-1.73,0-2.61-.31-2.61-.93,0-.21.16-.69.92-1.75l4.63-6.49c.62-.76,1-1.25,1.25-1.48h7.72c1.55,0,1.66.21,1.66.21a1.21,1.21,0,0,1,0,.38l-1,6.73c-.28,2-.68,2.57-1,2.69a5.92,5.92,0,0,1-2.34.44H60.89c-.6,0-.68.37-.68.59s.17.74,1,.74a2.14,2.14,0,0,0,.82-.15H72.36l1.95,0v.1h.26l.33,0c.31,0,1.24-.14,1.24-.7C76.14,34.85,76,34.57,75.41,34.51ZM69.23,8.86a4.22,4.22,0,0,1-.1.67c-.2,1.15-.35,2.07-.45,2.74L67.15,22.39a15,15,0,0,1-4.36.3H59.15c-.37,0-.41-.12-.42-.19a1,1,0,0,1,.27-.29q1.45-1.89,2.35-3.08L66.69,12c.87-1.17,1.39-1.85,1.57-2.06a2,2,0,0,0,.5-.83c.14-.34.29-.53.43-.53h0S69.23,8.59,69.23,8.86Z"/><path class="cls-1" d="M122.62,1.38c0-.22-.14-.49-.78-.49h-8.68c-.32,0-1.28,0-1.28.59,0,.32.46.54,2.68.54.8,0,1.21.19,1.21.56,0,.1-.23.62-2.32,3.11L102.89,18.25l-1-12.57c-.06-.76-.1-1.39-.1-1.89a1.38,1.38,0,0,1,.72-1.38A8.88,8.88,0,0,1,105.68,2c1.09,0,1.58-.22,1.58-.59S107,.9,106.37.9a7,7,0,0,0-.91.08c-.86.08-2.61.11-5.22.07L94.38.95A4.71,4.71,0,0,0,93.61.9c-.69,0-.83.28-.83.52,0,.45.79.51,1.48.51A8.3,8.3,0,0,1,95.91,2a1.14,1.14,0,0,1,.85,1.08l1.14,14.18c.07,1.32.1,2.1.1,2.39a9.93,9.93,0,0,1-.79,2.95l-3.42,9A7.24,7.24,0,0,1,92.52,34a3.41,3.41,0,0,1-2,.59c-1.45.09-2.31.17-2.55.21a.52.52,0,0,0-.46.54c0,.13.05.42.54.42.33,0,.76,0,1.3,0,2.06-.1,3.68-.16,4.83-.16l3.14.1c2,.07,3.06.1,3.45.1s1.18,0,1.18-.59c0-.12,0-.39-.5-.39h-.12l-.76,0H99.45c-1.62-.09-1.62-.71-1.62-.9s.15-.47.74-2l3.24-8.46a17.82,17.82,0,0,1,1.43-3c.22-.36.94-1.26,2.13-2.69L115.11,6a23.68,23.68,0,0,1,3.11-3.33,6.73,6.73,0,0,1,2.93-.73C122.37,1.79,122.62,1.61,122.62,1.38Z"/><path class="cls-1" d="M150.16,25.19c-.18,0-.43.09-.58.54a23.29,23.29,0,0,1-1.24,2.63c-1.6,3-3.67,4.86-6.15,5.51a43,43,0,0,1-9.54.7c-.86,0-1.88-.11-1.91-.64a2.89,2.89,0,0,1,.14-.32c.13-.39.33-.91.6-1.54l10.37-26c1.24-3.12,1.67-3.75,1.82-3.84a4.75,4.75,0,0,1,2.1-.25h1.64c.64,0,.73-.38.73-.61a.58.58,0,0,0-.63-.66,1.08,1.08,0,0,0-.64.2H146c-1.82.07-3.56.07-5.17,0-.76-.06-1.55-.11-2.35-.15L136.3.7v0h-.14c-1.65,0-2.39.22-2.39.69a.65.65,0,0,0,.12.42.49.49,0,0,0,.48.16c.85-.11,1.25-.16,1.43-.2h0c2.05,0,2.36.38,2.36.61a10.05,10.05,0,0,1-.84,2.54L126.44,31.35c-.48,1.17-.75,1.8-.85,2a2.42,2.42,0,0,1-.53,1,2.07,2.07,0,0,1-1.1.24c-1.08.09-1.82.13-2.2.13h-.25l0,0h-.06c-.34,0-1.38,0-1.38.58,0,.25.14.53.83.53.45,0,1.11,0,2-.1s1.51-.1,1.93-.1h11.07v0c.21,0,.71.06,1.86.11,1.35.07,2.76.1,4.17.1h3a11.06,11.06,0,0,0,1.85-.08c.23-.06.41-.27.57-.66l.6-1.51c1.89-4.76,2.8-7.31,2.8-7.8A.53.53,0,0,0,150.16,25.19Z"/><path class="cls-1" d="M185.91.85H173.3c-.6,0-.68.32-.68.51s.09.56.68.56h2c1.41,0,1.41.53,1.41.71a27.7,27.7,0,0,1-1.44,3.93L165.54,31l-1,2.57a2.47,2.47,0,0,1-1.32,1,10.21,10.21,0,0,1-2.4.24c-1,0-1.48.15-1.48.49,0,.14.06.38.49.43.26,0,1.15.05,2.74.05,4.41,0,7.89,0,10.32,0h0c.55,0,.84-.16.84-.48s-.26-.45-.78-.48-1.12,0-1.54,0c-1.22-.16-1.86-.49-1.87-1,.1-.26.18-.48.24-.67l10-25.68a32.4,32.4,0,0,1,2.18-4.81c.3-.49,1.16-.73,2.53-.73h1.3c.64,0,.73-.35.73-.56S186.29.85,185.91.85Z"/><path class="cls-1" d="M224.21,1.95a.6.6,0,0,0-.44.14l0,0c-.41.72-.88,1.08-1.43,1.08a3.7,3.7,0,0,1-1.86-1.06A8.35,8.35,0,0,0,214.84.25c-5.33,0-10.58,2.46-15.6,7.31a33,33,0,0,0-6.71,9.2,22.45,22.45,0,0,0-2.46,9.77,9.09,9.09,0,0,0,3.24,7.37c1.91,1.61,4.74,2.42,8.42,2.42a17.8,17.8,0,0,0,10-2.85c1.87-1.25,2.92-2.3,3.2-3.2l.8-2.73a3,3,0,0,1,.68-1.47,2.43,2.43,0,0,1,1.44-.27h1.64c.75,0,1.73-.06,1.73-.63,0-.29-.17-.64-1-.64H207.51c-.64,0-.74.42-.74.66s.17.61,1,.61h0a3.52,3.52,0,0,1,1.15-.24h.65c1.46,0,1.46.61,1.46.82a11.57,11.57,0,0,1-1.38,4.7,7.19,7.19,0,0,1-7.06,4.23,6.53,6.53,0,0,1-5.08-2,8.21,8.21,0,0,1-1.81-5.68A24.23,24.23,0,0,1,197,20.25a38.75,38.75,0,0,1,4.72-9.82,23.44,23.44,0,0,1,6.4-6.51A12.61,12.61,0,0,1,215,1.52a5.94,5.94,0,0,1,4,1.39,4.3,4.3,0,0,1,1.6,3.36A15.27,15.27,0,0,1,220,9.73a6.14,6.14,0,0,0-.26,1.23c0,.31.2.48.54.48a.71.71,0,0,0,.62-.48c.14-.27.57-1.33,1.3-3.15l.85-2.09c.4-1,.7-1.64.89-2,.61-1.17.61-1.3.61-1.36A.35.35,0,0,0,224.21,1.95Z"/><path class="cls-1" d="M271.84.8h-.6a8.86,8.86,0,0,0-1.54.15h-1.14L259.07.8c-.55,0-1.28.05-1.28.52s.43.75,1.28.75h2c.62,0,1.37.18,1.37.61a10.39,10.39,0,0,1-.88,2.79l-3.94,9.62a19.1,19.1,0,0,1-.91,2,.54.54,0,0,1-.46.29H245.71c-1.69,0-1.89-.28-1.91-.35a1.23,1.23,0,0,1,.13-.26l4.34-11.19a22.34,22.34,0,0,1,1.36-3.08,1.43,1.43,0,0,1,1.21-.39h2.64c.77,0,.94-.38.94-.71s-.35-.56-1-.57H240.32c-.6,0-.69.32-.69.51,0,.56.93.56,1.23.56a20.41,20.41,0,0,1,2.08,0c.91.09,1.37.35,1.37.77a11.7,11.7,0,0,1-.84,2.4L233.41,30.34a34.7,34.7,0,0,1-1.58,3.53,1.31,1.31,0,0,1-.73.55,9.26,9.26,0,0,1-2.7.24h-1c-.6,0-.69.38-.69.61,0,.56.89.56,1.18.56.51,0,1.3,0,2.33-.1s1.85-.1,2.41-.1l6.59.13c.3,0,.73,0,1.3.06h1c.68,0,.78-.37.78-.58,0-.51-.24-.59-.39-.59l-2.76.1c-1.55-.28-1.78-.63-1.78-.81a11.82,11.82,0,0,1,.79-2.34L242.3,21c.34-.89.52-1.35.55-1.46.15-.57.42-.84.82-.84h11.07c.79,0,1.27.13,1.35.36-.22.61-.4,1.08-.53,1.41l-4.49,11.71c-.31.83-.48,1.31-.54,1.49a2,2,0,0,1-.5.82,1.83,1.83,0,0,1-.87.2h-3c-.73-.05-.84.36-.84.61s.1.56.78.56h13.46c.69,0,1-.2,1-.59,0-.24-.22-.4-.68-.49a25,25,0,0,1-3.64-.22c-.62-.13-.71-.44-.71-.67.23-.72.56-1.66,1-2.77L266,6.32a14.13,14.13,0,0,1,1.84-3.84,4.22,4.22,0,0,1,2.67-.56H272c.68,0,.79-.37.79-.58S272.49.8,271.84.8Z"/><path class="cls-1" d="M311.58.85c-4.94.1-9.47.15-13.46.15C291,1,286.78.95,285.66.85h-.1l0,.09c-.53,1.2-1,2.22-1.44,3.06l-1.65,3.66-.75,1.71a1.6,1.6,0,0,0-.16.56c0,.39.27.43.39.43.32,0,.6-.22.82-.67a20.93,20.93,0,0,1,3.46-5.2c1.63-1.53,4.17-2.31,7.54-2.31h1.79l-11.2,28.29a12.87,12.87,0,0,1-1.84,3.64,3.57,3.57,0,0,1-2.42.61h-.95q-1.13,0-1.13.67c0,.18.12.4.69.4a17,17,0,0,0,1.75-.08c1.35,0,2.67-.07,3.93-.07,1.88,0,3.54,0,4.93.1l1.3.05c.81,0,1-.37,1-.68s-.08-.44-.59-.44c-1.39,0-3.06-.17-3.06-1a3.27,3.27,0,0,1,.31-.89c.21-.49.45-1.06.73-1.75L300.51,2.26c.78-.06,1.62-.09,2.5-.09a14.51,14.51,0,0,1,3.21.24,2.75,2.75,0,0,1,2.24,3A11,11,0,0,1,308,8.22a11.62,11.62,0,0,0-.43,1.8.49.49,0,0,0,.53.53c.26,0,.62-.25,1.18-2.19s1.37-4.48,2.39-7.32l.07-.19Z"/></svg>